<svg width="100" height="100" xmlns="http://www.w3.org/2000/svg">

 <g>
  <title>background</title>
  <rect fill="none" id="canvas_background" height="402" width="582" y="-1" x="-1"/>
 </g>
 <g>
  <title>Layer 1</title>
  <path id="svg_1" fill="#58b2dc" d="m99.8711,50.281c0,-27.7761 -22.3501,-50.281 -49.9357,-50.281c-27.5852,0 -49.9354,22.5049 -49.9354,50.281c0,25.0962 18.2607,45.8979 42.133,49.673l0,-35.1381l-12.6851,0l0,-14.5349l12.6851,0l0,-11.0779c0,-12.6007 7.4502,-19.561 18.8608,-19.561c5.465,0 11.179,0.9813 11.179,0.9813l0,12.3675l-6.2982,0c-6.2017,0 -8.1365,3.8766 -8.1365,7.8524l0,9.4377l13.8488,0l-2.2147,14.5349l-11.6341,0l0,35.1381c23.8722,-3.7751 42.133,-24.5768 42.133,-49.673z"/>
 </g>
</svg>