<svg width="99.99999999999999" height="99.99999999999999" xmlns="http://www.w3.org/2000/svg">

 <g>
  <title>background</title>
  <rect fill="none" id="canvas_background" height="402" width="582" y="-1" x="-1"/>
 </g>
 <g>
  <title>Layer 1</title>
  <path id="svg_1" fill="#58b2dc" d="m33.4476,77.6172c0,0.3906 -0.4637,0.7031 -1.0484,0.7031c-0.6653,0.0586 -1.129,-0.2539 -1.129,-0.7031c0,-0.3906 0.4637,-0.7031 1.0484,-0.7031c0.6048,-0.0586 1.129,0.2539 1.129,0.7031zm-6.2702,-0.8789c-0.1411,0.3906 0.2621,0.8398 0.867,0.957c0.5242,0.1953 1.129,0 1.25,-0.3906c0.1209,-0.3906 -0.2621,-0.8399 -0.867,-1.0156c-0.5242,-0.1368 -1.1088,0.0586 -1.25,0.4492zm8.9113,-0.3321c-0.5847,0.1368 -0.9879,0.5079 -0.9274,0.9571c0.0605,0.3906 0.5847,0.6445 1.1895,0.5078c0.5847,-0.1367 0.9879,-0.5078 0.9274,-0.8984c-0.0605,-0.3711 -0.6048,-0.625 -1.1895,-0.5665zm13.2661,-74.8437c-27.9637,0 -49.3548,20.5664 -49.3548,47.6563c0,21.6601 14.0726,40.1953 34.1734,46.7187c2.5806,0.4492 3.4879,-1.0937 3.4879,-2.3633c0,-1.2109 -0.0605,-7.8906 -0.0605,-11.9922c0,0 -14.1129,2.9297 -17.0766,-5.8203c0,0 -2.2984,-5.6836 -5.6048,-7.1484c0,0 -4.617,-3.0664 0.3225,-3.0078c0,0 5.0202,0.3906 7.7823,5.039c4.4153,7.5391 11.8145,5.3711 14.6976,4.0821c0.4637,-3.125 1.7742,-5.293 3.2258,-6.5821c-11.2702,-1.2109 -22.6411,-2.7929 -22.6411,-21.582c0,-5.3711 1.5322,-8.0664 4.758,-11.5039c-0.5242,-1.2695 -2.2379,-6.5039 0.5242,-13.2617c4.2137,-1.2696 13.9113,5.2734 13.9113,5.2734c4.0323,-1.0937 8.3669,-1.6601 12.6613,-1.6601c4.2943,0 8.629,0.5664 12.6613,1.6601c0,0 9.6976,-6.5625 13.9113,-5.2734c2.7621,6.7773 1.0484,11.9922 0.5242,13.2617c3.2258,3.457 5.2016,6.1523 5.2016,11.5039c0,18.8477 -11.875,20.3516 -23.1452,21.582c1.8549,1.543 3.4274,4.4727 3.4274,9.0625c0,6.5821 -0.0605,14.7266 -0.0605,16.3282c0,1.2695 0.9275,2.8125 3.488,2.3632c20.1613,-6.4843 33.8306,-25.0195 33.8306,-46.6796c0,-27.0899 -22.6814,-47.6563 -50.6452,-47.6563zm-29.758,67.3633c-0.2621,0.1953 -0.2016,0.6445 0.1411,1.0156c0.3226,0.3125 0.7863,0.4492 1.0484,0.1953c0.2621,-0.1953 0.2016,-0.6445 -0.1411,-1.0156c-0.3226,-0.3125 -0.7863,-0.4492 -1.0484,-0.1953zm-2.1774,-1.582c-0.1412,0.2539 0.0604,0.5664 0.4637,0.7617c0.3225,0.1953 0.7258,0.1367 0.8669,-0.1367c0.1411,-0.254 -0.0605,-0.5665 -0.4637,-0.7618c-0.4032,-0.1172 -0.7258,-0.0586 -0.8669,0.1368zm6.5322,6.9531c-0.3226,0.2539 -0.2016,0.8398 0.2621,1.2109c0.4637,0.4492 1.0484,0.5078 1.3105,0.1953c0.2621,-0.2539 0.1411,-0.8398 -0.2621,-1.2109c-0.4435,-0.4492 -1.0484,-0.5078 -1.3105,-0.1953zm-2.2984,-2.8711c-0.3226,0.1953 -0.3226,0.7031 0,1.1523c0.3226,0.4492 0.867,0.6446 1.1291,0.4492c0.3225,-0.2539 0.3225,-0.7617 0,-1.2109c-0.2823,-0.4492 -0.8065,-0.6445 -1.1291,-0.3906z"/>
 </g>
</svg>